:FULLY-SPECIFIED
:FORCE-ALL-JOINTS-BE-3DOF
:DEGREES
238
root 5.56758 15.6362 -25.8253 9.75906 23.9404 -7.67929
lfemur -42.0623 34.9004 -6.73947
ltibia 53.8417 0 0
lfoot -14.3589 8.32652 0
ltoes -4.04473 0 0
rfemur -16.5896 -11.7075 5.20227
rtibia 33.5627 0 0
rfoot -39.4382 -8.86853 0
rtoes 56.8072 0 0
lowerback 1.052 -2.36727 3.03566
upperback -1.28957 -3.02649 3.56235
thorax -1.87494 -1.5232 2.04121
lowerneck -10.4109 -2.01623 0.047864
upperneck 1.41065 -2.67687 -0.203112
head 2.23504 -1.33755 -0.207234
lclavicle -4.16207e-15 -4.47266e-15 0
lhumerus -55.1573 -33.3542 122.231
lradius 62.7871 0 0
lwrist 19.2701 0 0
lhand 6.28523 13.5866 0
lfingers 7.12502 0 0
lthumb 31.5904 40.8311 0
rclavicle -4.16207e-15 -4.47266e-15 0
rhumerus -34.9005 -21.7661 -69.1397
rradius 99.2323 0 0
rwrist -52.4546 0 0
rhand -7.2222 -23.7233 0
rfingers 7.12502 0 0
rthumb 18.4956 -770.865 0
239
root 5.67048 15.667 -25.8078 9.49817 25.6848 -7.7155
lfemur -42.2465 34.5102 -7.67421
ltibia 53.3815 0 0
lfoot -14.9504 8.07217 0
ltoes -0.824673 0 0
rfemur -15.0601 -9.65439 5.02704
rtibia 32.7918 0 0
rfoot -40.8577 -11.5946 0
rtoes 56.5583 0 0
lowerback 0.981485 -2.47525 3.00952
upperback -1.37721 -3.16615 3.74763
thorax -1.91273 -1.59114 2.24982
lowerneck -10.195 -2.26821 0.0165156
upperneck 1.57801 -3.00778 -0.226578
head 2.25078 -1.50335 -0.224719
lclavicle -8.33241e-15 -2.45168e-15 0
lhumerus -55.449 -32.6665 122.455
lradius 63.0179 0 0
lwrist 18.9828 0 0
lhand 5.26345 12.9821 0
lfingers 7.12502 0 0
lthumb 30.6172 40.4184 0
rclavicle -8.33241e-15 -2.45168e-15 0
rhumerus -35.1652 -23.6877 -68.5469
rradius 96.6087 0 0
rwrist -53.4972 0 0
rhand -15.6127 -23.7958 0
rfingers 7.12502 0 0
rthumb 10.4541 -771.859 0
240
root 5.77338 15.6977 -25.7903 9.23729 27.4293 -7.75171
lfemur -42.4306 34.12 -8.60895
ltibia 52.9212 0 0
lfoot -15.542 7.81781 0
ltoes 2.39538 0 0
rfemur -13.5305 -7.60127 4.85182
rtibia 32.0208 0 0
rfoot -42.2771 -14.3206 0
rtoes 56.3094 0 0
lowerback 0.910972 -2.58324 2.98338
upperback -1.46485 -3.30581 3.93291
thorax -1.95051 -1.65908 2.45843
lowerneck -9.97917 -2.52019 -0.0148328
upperneck 1.74538 -3.33868 -0.250044
head 2.26652 -1.66914 -0.242205
lclavicle -1.25028e-14 -4.307e-16 0
lhumerus -55.7408 -31.9789 122.68
lradius 63.2486 0 0
lwrist 18.6956 0 0
lhand 4.24168 12.3775 0
lfingers 7.12502 0 0
lthumb 29.6439 40.0056 0
rclavicle -1.25028e-14 -4.307e-16 0
rhumerus -35.4299 -25.6094 -67.9541
rradius 93.9852 0 0
rwrist -54.5398 0 0
rhand -24.0033 -23.8684 0
rfingers 7.12502 0 0
rthumb 2.41258 -772.852 0
241
root 5.87628 15.7285 -25.7728 8.97641 29.1737 -7.78792
lfemur -42.6148 33.7298 -9.54369
ltibia 52.461 0 0
lfoot -16.1335 7.56346 0
ltoes 5.61544 0 0
rfemur -12.001 -5.54814 4.67659
rtibia 31.2499 0 0
rfoot -43.6965 -17.0466 0
rtoes 56.0605 0 0
lowerback 0.840458 -2.69122 2.95724
upperback -1.55249 -3.44547 4.11819
thorax -1.98829 -1.72702 2.66704
lowerneck -9.7633 -2.77217 -0.0461811
upperneck 1.91274 -3.66959 -0.27351
head 2.28226 -1.83494 -0.259691
lclavicle -1.66731e-14 1.59028e-15 0
lhumerus -56.0326 -31.2912 122.904
lradius 63.4793 0 0
lwrist 18.4083 0 0
lhand 3.2199 11.7729 0
lfingers 7.12502 0 0
lthumb 28.6707 39.5928 0
rclavicle -1.66731e-14 1.59028e-15 0
rhumerus -35.6945 -27.531 -67.3613
rradius 91.3616 0 0
rwrist -55.5824 0 0
rhand -32.3938 -23.941 0
rfingers 7.12502 0 0
rthumb -5.62894 -773.846 0
242
root 5.99534 15.7691 -25.7623 8.93483 30.9977 -7.34268
lfemur -42.1446 32.5641 -10.265
ltibia 51.6742 0 0
lfoot -16.4839 6.40299 0
ltoes 10.3346 0 0
rfemur -11.6016 -4.05943 4.46019
rtibia 32.5134 0 0
rfoot -42.4824 -19.3234 0
rtoes 55.8331 0 0
lowerback 0.725533 -2.74078 2.75551
upperback -1.52042 -3.52346 4.00023
thorax -1.88333 -1.7642 2.65121
lowerneck -9.76072 -3.21447 -0.0894507
upperneck 1.96909 -4.26121 -0.121572
head 2.30683 -2.12454 -0.234681
lclavicle -1.75469e-14 4.17448e-15 0
lhumerus -55.8716 -31.5653 122.768
lradius 63.3359 0 0
lwrist 18.1831 0 0
lhand 3.45504 11.8704 0
lfingers 7.12502 0 0
lthumb 28.8952 39.651 0
rclavicle -1.75469e-14 4.17448e-15 0
rhumerus -36.4304 -25.6917 -66.7834
rradius 86.3283 0 0
rwrist -43.7743 0 0
rhand -29.679 -24.2153 0
rfingers 7.12502 0 0
rthumb -3.00758 -774.092 0
243
root 6.1144 15.8097 -25.7518 8.89326 32.8218 -6.89743
lfemur -41.6743 31.3984 -10.9863
ltibia 50.8875 0 0
lfoot -16.8343 5.24251 0
ltoes 15.0538 0 0
rfemur -11.2022 -2.57073 4.2438
rtibia 33.7768 0 0
rfoot -41.2682 -21.6002 0
rtoes 55.6058 0 0
lowerback 0.610608 -2.79033 2.55378
upperback -1.48835 -3.60146 3.88226
thorax -1.77837 -1.80139 2.63539
lowerneck -9.75814 -3.65676 -0.13272
upperneck 2.02544 -4.85284 0.0303667
head 2.33139 -2.41415 -0.209671
lclavicle -1.84207e-14 6.75869e-15 0
lhumerus -55.7107 -31.8395 122.632
lradius 63.1925 0 0
lwrist 17.9579 0 0
lhand 3.69018 11.968 0
lfingers 7.12502 0 0
lthumb 29.1197 39.7093 0
rclavicle -1.84207e-14 6.75869e-15 0
rhumerus -37.1663 -23.8525 -66.2055
rradius 81.2949 0 0
rwrist -31.9662 0 0
rhand -26.9641 -24.4897 0
rfingers 7.12502 0 0
rthumb -0.386227 -774.339 0
244
root 6.23346 15.8503 -25.7413 8.85168 34.6459 -6.45219
lfemur -41.2041 30.2326 -11.7076
ltibia 50.1007 0 0
lfoot -17.1847 4.08204 0
ltoes 19.7729 0 0
rfemur -10.8028 -1.08202 4.0274
rtibia 35.0403 0 0
rfoot -40.0541 -23.877 0
rtoes 55.3784 0 0
lowerback 0.495683 -2.83989 2.35204
upperback -1.45628 -3.67945 3.7643
thorax -1.6734 -1.83857 2.61956
lowerneck -9.75556 -4.09906 -0.17599
upperneck 2.08179 -5.44446 0.182305
head 2.35596 -2.70376 -0.184661
lclavicle -1.92946e-14 9.34289e-15 0
lhumerus -55.5497 -32.1136 122.496
lradius 63.0491 0 0
lwrist 17.7326 0 0
lhand 3.92532 12.0655 0
lfingers 7.12502 0 0
lthumb 29.3442 39.7675 0
rclavicle -1.92946e-14 9.34289e-15 0
rhumerus -37.9022 -22.0132 -65.6277
rradius 76.2616 0 0
rwrist -20.1581 0 0
rhand -24.2492 -24.764 0
rfingers 7.12502 0 0
rthumb 2.23513 -774.586 0
245
root 6.35251 15.891 -25.7307 8.81011 36.4699 -6.00695
lfemur -40.7339 29.0669 -12.429
ltibia 49.3139 0 0
lfoot -17.535 2.92157 0
ltoes 24.4921 0 0
rfemur -10.4034 0.406687 3.811
rtibia 36.3038 0 0
rfoot -38.84 -26.1538 0
rtoes 55.151 0 0
lowerback 0.380758 -2.88945 2.15031
upperback -1.42422 -3.75744 3.64633
thorax -1.56844 -1.87575 2.60373
lowerneck -9.75298 -4.54136 -0.21926
upperneck 2.13814 -6.03608 0.334243
head 2.38053 -2.99336 -0.159651
lclavicle -2.01684e-14 1.19271e-14 0
lhumerus -55.3887 -32.3877 122.36
lradius 62.9056 0 0
lwrist 17.5074 0 0
lhand 4.16047 12.1631 0
lfingers 7.12502 0 0
lthumb 29.5687 39.8258 0
rclavicle -2.01684e-14 1.19271e-14 0
rhumerus -38.6382 -20.174 -65.0498
rradius 71.2283 0 0
rwrist -8.35007 0 0
rhand -21.5344 -25.0384 0
rfingers 7.12502 0 0
rthumb 4.85649 -774.832 0
246
root 6.47157 15.9316 -25.7202 8.76853 38.294 -5.5617
lfemur -40.2636 27.9012 -13.1503
ltibia 48.5272 0 0
lfoot -17.8854 1.7611 0
ltoes 29.2112 0 0
rfemur -10.0039 1.89539 3.59461
rtibia 37.5672 0 0
rfoot -37.6258 -28.4306 0
rtoes 54.9237 0 0
lowerback 0.265833 -2.939 1.94858
upperback -1.39215 -3.83544 3.52836
thorax -1.46348 -1.91294 2.58791
lowerneck -9.7504 -4.98365 -0.262529
upperneck 2.19449 -6.62771 0.486182
head 2.40509 -3.28296 -0.134641
lclavicle -2.10422e-14 1.45113e-14 0
lhumerus -55.2278 -32.6619 122.224
lradius 62.7622 0 0
lwrist 17.2822 0 0
lhand 4.39561 12.2607 0
lfingers 7.12502 0 0
lthumb 29.7932 39.8841 0
rclavicle -2.10422e-14 1.45113e-14 0
rhumerus -39.3741 -18.3347 -64.4719
rradius 66.1949 0 0
rwrist 3.45802 0 0
rhand -18.8195 -25.3128 0
rfingers 7.12502 0 0
rthumb 7.47784 -775.079 0
